<?xml version="1.0" encoding="utf-8"?>
<?xml-stylesheet type="text/xsl" href="rss1.xsl"?>
<rss version="2.0" xmlns:atom="http://www.w3.org/2005/Atom" xmlns:content="http://purl.org/rss/1.0/modules/content/" xmlns:dc="http://purl.org/dc/elements/1.1/" xmlns:media="http://search.yahoo.com/mrss/">
<channel>
 <title>Getty</title>
 <link>http://www.gettyimg.com/</link>
 <atom:link href="http://www.gettyimg.com/" rel="self" type="application/rss+xml" />

 
                <item>
                <title><![CDATA[【UPSCALED】Linkin Park X Steve Aoki - A Light That Never Comes [4K AI Upscale HEVC 10-bit / PCM 24-bit / DTS-HD MA 5.1]]]></title>
                <link><![CDATA[https://sharemania.us/threads/linkin-park-x-steve-aoki-a-light-that-never-comes-4k-ai-upscale-hevc-10-bit-pcm-24-bit-dts-hd-ma-5-1.222195/]]></link>
                <description><![CDATA[<article>
<blockquote class="messageText SelectQuoteContainer ugc baseHtml">
<b><img src="https://images2.imgbox.com/b2/5d/c00qgPRI_o.jpg" class="bbCodeImage LbImage" alt="[​IMG]" data-url="https://images2.imgbox.com/b2/5d/c00qgPRI_o.jpg" style=""> <br>
<br>
Genre: <span style="color: rgb(0, 89, 179)">Electronic, Rock</span><br>
Style: <span style="color: rgb(0, 89, 179)">Alternative Rock, Electro House</span><br>
Year: <span style="color: rgb(0, 89, 179)">2013</span><br>
<b>Video Source: <span style="color: #0059b3">Vimeo</span></b><br>
Audio Source: <span style="color: #0059b3">Qobuz, DTS Blu-ray Music Demo Disc 14</span></b><br>
<br>
"<b>A Light that Never Comes</b>" is a song by American alternative rock group Linkin Park with American electro house producer Steve Aoki. It was written by Chester Bennington, Mike Shinoda and Aoki and produced by the latter two for the second remix album Recharged, which was released on October 31, 2013. The single was launched via Facebook and the official <i>LP Recharge</i> website on September 12, 2013, as well as a stream on demand via Xbox Music. It was Linkin Park's first electro house song, but according to Shinoda a one-off experiment.<br>
<br>
Vocalists Shinoda and Bennington appeared on stage during Aoki's set at Japan's Summer Sonic festival on August 10, 2013. Bennington sang and Shinoda rapped on the single's live debut. Prior to this performance, both Linkin Park and Aoki hadn't said a word about the collaboration.<br>
<br>
A few weeks later, the band announced that the song could be unlocked in the Facebook game Linkin Park Recharge, which was yet to be released. This adventure game was put online on September 12. It was also announced that the song would be released as the lead single from the remix album Recharged.<br>
<br>
On October 6, 2013, Joe Hahn confirmed a video for "A Light That Never Comes" is in production, by posting two behind the scenes pictures, and a short video preview on his Instagram account. The video was released a couple of days later, albeit on several sites across the world appealing to their respective regions only. The music video was then officially released worldwide on YouTube on October 17, 2013. A behind-the-scenes feature of the video is on Dell's official website. It features the band and a statue of Steve Aoki in a cyber world along with an unnamed actress.<br>
<br>
As of June 2023, the music video for "A Light That Never Comes" has over 39.3 million views on YouTube.<br>
<br>
<b>Release Info</b><br>
The video track is upscaled to 4K with Topaz Video AI and encoded to HEVC 10-bit.<br>
The PCM track is lossless (Qobuz, HiRes 24-bit), synced with Adobe Audition.<br>
The DTS-HD MA track is ripped from Blu-ray and synced by muxing.<br>
The timed lyrics are synced and edited to match the music video.<br>
Enable the subtitles to see the lyrics.<br>
<br>
<div class="ToggleTriggerAnchor bbCodeSpoilerContainer">
<button type="button" class="button bbCodeSpoilerButton ToggleTrigger Tooltip JsOnly" data-target="> .SpoilerTarget"><span>Spoiler: <span class="SpoilerTitle">Media Info</span></span></button>
<div class="SpoilerTarget bbCodeSpoilerText">
<div class="bbCodeBlock bbCodeCode">
<div class="type">Code:</div>
<pre>General
Unique ID                      : 170268478924185541263336024846643613568 (0x80188426A2C41420E7B1D893FCC1CF80)
Complete name                  : Linkin Park X Steve Aoki - A Light That Never Comes.mkv
Format                         : Matroska
Format version                 : Version 4 / Version 2
File size                      : 669 MiB
Duration                       : 3 min 54 s
Overall bit rate               : 24.0 Mb/s
Frame rate                     : 24.000 FPS
Encoded date                   : 2023-06-07 10:35:06 UTC
Writing application            : mkvmerge v76.0 ('Celebration') 64-bit
Writing library                : libebml v1.4.4 + libmatroska v1.7.1

Video
ID                             : 1
Format                         : HEVC
Format/Info                    : High Efficiency Video Coding
Format profile                 : Main 10@L5@Main
Codec ID                       : V_MPEGH/ISO/HEVC
Duration                       : 3 min 53 s
Bit rate                       : 18.9 Mb/s
Width                          : 3 840 pixels
Height                         : 2 160 pixels
Display aspect ratio           : 16:9
Frame rate mode                : Constant
Frame rate                     : 24.000 FPS
Color space                    : YUV
Chroma subsampling             : 4:2:0
Bit depth                      : 10 bits
Bits/(Pixel*Frame)             : 0.095
Stream size                    : 528 MiB (79%)
Default                        : Yes
Forced                         : No
Color range                    : Limited
Color primaries                : BT.709
Transfer characteristics       : BT.709
Matrix coefficients            : BT.709

Audio #1
ID                             : 2
Format                         : PCM
Format settings                : Little / Signed
Codec ID                       : A_PCM/INT/LIT
Duration                       : 3 min 54 s
Bit rate mode                  : Constant
Bit rate                       : 2 117 kb/s
Channel(s)                     : 2 channels
Sampling rate                  : 44.1 kHz
Frame rate                     : 25.000 FPS (1764 SPF)
Bit depth                      : 24 bits
Stream size                    : 59.0 MiB (9%)
Title                          : 24-bit Stereo
Language                       : English
Default                        : Yes
Forced                         : No

Audio #2
ID                             : 3
Format                         : DTS XLL
Format/Info                    : Digital Theater Systems
Commercial name                : DTS-HD Master Audio
Codec ID                       : A_DTS
Duration                       : 3 min 52 s
Bit rate mode                  : Variable / Constant
Bit rate                       : 2 974 kb/s / 1 509 kb/s
Channel(s)                     : 6 channels
Channel layout                 : C L R Ls Rs LFE
Sampling rate                  : 48.0 kHz
Frame rate                     : 93.750 FPS (512 SPF)
Bit depth                      : 24 bits
Compression mode               : Lossless / Lossy
Delay relative to video        : 4 ms
Stream size                    : 82.4 MiB (12%)
Title                          : 24-bit 48 kHz 5.1
Language                       : English
Default                        : No
Forced                         : No

Text
ID                             : 4
Format                         : UTF-8
Codec ID                       : S_TEXT/UTF8
Codec ID/Info                  : UTF-8 Plain Text
Duration                       : 3 min 27 s
Bit rate                       : 63 b/s
Frame rate                     : 0.255 FPS
Count of elements              : 53
Stream size                    : 1.60 KiB (0%)
Title                          : Lyrics
Language                       : English
Default                        : No
Forced                         : No
</pre>
</div></div>
</div><br>
<div class="bbCodeBlock bbCodeVfcHH HiddenContent">
<div class="attribution type">Hidden Content:</div>
<blockquote>You must reply before you can see the hidden data contained here.</blockquote>
</div>
<div class="messageTextEndMarker">&nbsp;</div>
</blockquote>
</article>]]></description>
                <author><![CDATA[ADHDerby]]></author>
                </item>

                
                <item>
                <title><![CDATA[【Cinema Center】SERIES - Wizards of Waverly Place [Season 1] (DVDRemux)]]></title>
                <link><![CDATA[https://sharemania.us/threads/wizards-of-waverly-place-season-1-dvdremux.222194/]]></link>
                <description><![CDATA[<article>
<blockquote class="messageText SelectQuoteContainer ugc baseHtml">
<div style="text-align: center"><img src="https://i.imgur.com/0Tfuuul.jpg" class="bbCodeImage LbImage" alt="[​IMG]" data-url="https://i.imgur.com/0Tfuuul.jpg" style=""><br>
<b>The First Season</b><br>
<span style="font-size: 12px">DVDRemux</span><br>
<br>
<i>All episodes in chronological (production) order</i><br>
<br>
<div class="bbCodeBlock bbCodeVfcHH HiddenContent">
<div class="attribution type">Hidden Content:</div>
<blockquote>You must reply before you can see the hidden data contained here.</blockquote>
</div><i><b>Use base64decode.org to decode link (<span style="text-decoration: underline">twice</span>)</b></i>​</div>
<div class="messageTextEndMarker">&nbsp;</div>
</blockquote>
</article>]]></description>
                <author><![CDATA[lovedante]]></author>
                </item>

                </channel></rss>